# xmcd CD database file
#
# Track frame offsets:
#	150
#	44664
#	65327
#	86819
#	114269
#	153990
#	183804
#	219133
#	245040
#	274017
#	302773
#
# Disc length: 4317 seconds
#
# Revision: 0
# Processed by: cddbd v1.5.1PL0 Copyright (c) Steve Scherf et al.
# Submitted via: CDex 1.51
#
DISCID=9110db0b
DTITLE=Mike Melvoin - It's Always You
DYEAR=2002
DGENRE=Jazz
TTITLE0=All or Nothing at All
TTITLE1=Are You Going to Eat That?
TTITLE2=Dawn Dance
TTITLE3=Easy to Love
TTITLE4=It's Always You
TTITLE5=I Hear a Rhapsody
TTITLE6=I'm Confessin'
TTITLE7=But I Have To
TTITLE8=This is the Place
TTITLE9=Come Rain or Come Shine
TTITLE10=Whatever My Bianca Wants
EXTD=YEAR: 2002
EXTT0=
EXTT1=
EXTT2=
EXTT3=
EXTT4=
EXTT5=
EXTT6=
EXTT7=
EXTT8=
EXTT9=
EXTT10=
PLAYORDER=
